<?xml version="1.0" encoding="utf-8"?>
<!-- Generator: Adobe Illustrator 25.4.1, SVG Export Plug-In . SVG Version: 6.00 Build 0)  -->
<svg version="1.1" id="Layer_1" xmlns="http://www.w3.org/2000/svg" xmlns:xlink="http://www.w3.org/1999/xlink" x="0px" y="0px"
	 viewBox="0 0 861 137" style="enable-background:new 0 0 861 137;" xml:space="preserve">
<style type="text/css">
	.st0{fill:#253443;}
	.st1{fill:#00A686;}
	.st2{fill:#FFAA00;}
	.st3{fill:#929191;}
</style>
<g>
	<g id="Group_3" transform="translate(134.189 23.917)">
		<g id="Group_2">
			<g id="Group_1">
				<path id="Path_1" class="st0" d="M162.3,67.3v-9.4h-21.8v-7.6l18.1-28.5H172v27.6h5.9v8.5H172v9.4L162.3,67.3z M162.3,30.4
					l-12.3,19h12.3V30.4z"/>
				<path id="Path_2" class="st0" d="M184,67.3V21.8h9.7v37H213v8.5H184z"/>
				<path id="Path_3" class="st0" d="M237.2,67.3V21.8h32.2v8.5h-22.5v9.6h22v8.5h-22v18.8L237.2,67.3z"/>
				<path id="Path_4" class="st0" d="M274,44.6c0-13.7,10-23.5,23.8-23.5c13.8,0,23.8,9.8,23.8,23.5s-10,23.5-23.8,23.5
					C284,68.1,274,58.3,274,44.6z M311.6,44.6c0-8.5-5.5-14.9-13.9-14.9c-8.4,0-13.8,6.4-13.8,14.9c0,8.5,5.4,14.9,13.8,14.9
					S311.6,53,311.6,44.6z"/>
				<path id="Path_5" class="st0" d="M328.4,49.2V21.8h9.8v27c0,6.3,3.7,10.7,10.7,10.7s10.6-4.4,10.6-10.7v-27h9.9v27.3
					c0,11.3-6.7,19-20.5,19C335.1,68.1,328.4,60.3,328.4,49.2z"/>
				<path id="Path_6" class="st0" d="M409.8,67.3l-21.7-29.7v29.7h-9.7V21.8h10l21.1,28.6V21.8h9.7v45.5H409.8z"/>
				<path id="Path_7" class="st0" d="M428.1,67.3V21.8h17.9c14.3,0,24.2,9.1,24.2,22.8s-9.9,22.7-24.2,22.7L428.1,67.3z M460.3,44.6
					c0-8.1-4.9-14.3-14.3-14.3h-8.3v28.5h8.3c7.5,0.4,13.9-5.4,14.3-13C460.4,45.4,460.4,45,460.3,44.6L460.3,44.6z"/>
				<path id="Path_8" class="st0" d="M506.2,67.3l-2.8-7.7h-19.5l-2.9,7.7H470l17.6-45.5h12.2l17.5,45.5H506.2z M493.6,31.5
					l-7.1,19.6h14.2L493.6,31.5z"/>
				<path id="Path_9" class="st0" d="M527.6,67.3v-37h-13.3v-8.5h36.3v8.5h-13.2v37L527.6,67.3z"/>
				<path id="Path_10" class="st0" d="M556.8,67.3V21.8h9.7v45.5H556.8z"/>
				<path id="Path_11" class="st0" d="M573.3,44.6c0-13.7,10-23.5,23.7-23.5c13.8,0,23.8,9.8,23.8,23.5s-10,23.5-23.8,23.5
					C583.4,68.1,573.3,58.3,573.3,44.6z M610.9,44.6c0-8.5-5.5-14.9-13.9-14.9s-13.8,6.4-13.8,14.9c0,8.5,5.4,14.9,13.8,14.9
					S610.9,53,610.9,44.6z"/>
				<path id="Path_12" class="st0" d="M659.1,67.3l-21.7-29.7v29.7h-9.7V21.8h10l21.1,28.6V21.8h9.7v45.5L659.1,67.3z"/>
			</g>
		</g>
	</g>
	<g id="Group_8">
		<g id="Group_4" transform="translate(57.936 43.328)">
			<path id="Path_13" class="st1" d="M103.1,87.3c-5.1,0-9.2-4.1-9.2-9.2l0,0V42.2c0-5.1,4.1-9.2,9.2-9.2h63.1
				c5.1,0,9.2,4.1,9.2,9.2l0,0c0,5.1-4.1,9.2-9.2,9.2h-44.6c-5.1,0-9.2,4.1-9.2,9.2c0,0,0,0,0,0V78
				C112.3,83.1,108.2,87.3,103.1,87.3C103.1,87.3,103.1,87.3,103.1,87.3L103.1,87.3z"/>
		</g>
		<g id="Group_5" transform="translate(57.936)">
			<path id="Path_14" class="st2" d="M112.3,15.6V33c0,5.1,4.1,9.2,9.2,9.2c0,0,0,0,0,0h44.6c5.1,0,9.2,4.1,9.2,9.2c0,0,0,0,0,0l0,0
				c0,5.1-4.1,9.2-9.2,9.2h-63.1c-5.1,0-9.2-4.1-9.2-9.2V15.6c0-5.1,4.1-9.2,9.2-9.2l0,0C108.2,6.4,112.3,10.5,112.3,15.6z"/>
		</g>
		<g id="Group_6" transform="translate(0 43.328)">
			<path id="Path_15" class="st3" d="M121.4,78V60.6c0-5.1-4.1-9.2-9.2-9.2c0,0,0,0,0,0H67.6c-5.1,0-9.2-4.1-9.2-9.2l0,0
				c0-5.1,4.1-9.2,9.2-9.2h63.1c5.1,0,9.2,4.1,9.2,9.2V78c0,5.1-4.1,9.2-9.2,9.2l0,0l0,0C125.5,87.3,121.4,83.1,121.4,78
				C121.4,78,121.4,78,121.4,78z"/>
		</g>
		<g id="Group_7">
			<path id="Path_16" class="st0" d="M130.6,6.4c5.1,0,9.2,4.1,9.2,9.2v35.9c0,5.1-4.1,9.2-9.2,9.2H67.6c-5.1,0-9.2-4.1-9.2-9.2l0,0
				c0-5.1,4.1-9.2,9.2-9.2h44.6c5.1,0,9.2-4.1,9.2-9.2c0,0,0,0,0,0V15.6C121.4,10.5,125.5,6.4,130.6,6.4L130.6,6.4L130.6,6.4z"/>
		</g>
	</g>
</g>
</svg>
