<?xml version="1.0" encoding="utf-8"?>
<!-- Generator: Adobe Illustrator 26.0.0, SVG Export Plug-In . SVG Version: 6.00 Build 0)  -->
<svg version="1.1" id="Layer_1" xmlns="http://www.w3.org/2000/svg" xmlns:xlink="http://www.w3.org/1999/xlink" x="0px" y="0px"
	 viewBox="0 0 473.9 256.9" style="enable-background:new 0 0 473.9 256.9;" xml:space="preserve">
<style type="text/css">
	.st0{fill:#FFFFFF;}
</style>
<g>
	<g>
		<g>
			<path class="st0" d="M255,173.3c-6.1,0-11-4.9-11-11v-31.7v-11c0-6.1,4.9-11,11-11h75c6.1,0,11,4.9,11,11v0c0,6.1-4.9,11-11,11
				H277c-6.1,0-11,4.9-11,11v20.7C266,168.4,261.1,173.3,255,173.3L255,173.3z"/>
		</g>
		<g>
			<path class="st0" d="M266,36.5v20.7c0,6.1,4.9,11,11,11H330c6.1,0,11,4.9,11,11v0c0,6.1-4.9,11-11,11h-75c-6.1,0-11-4.9-11-11
				v-11V36.5c0-6.1,4.9-11,11-11h0C261.1,25.5,266,30.4,266,36.5z"/>
		</g>
		<g>
			<path class="st0" d="M207.9,162.3v-20.7c0-6.1-4.9-11-11-11h-53.1c-6.1,0-11-4.9-11-11v0c0-6.1,4.9-11,11-11h75
				c6.1,0,11,4.9,11,11v11v31.7c0,6.1-4.9,11-11,11h0C212.8,173.3,207.9,168.4,207.9,162.3z"/>
		</g>
		<g>
			<path class="st0" d="M218.9,25.5c6.1,0,11,4.9,11,11v31.7v11c0,6.1-4.9,11-11,11h-75c-6.1,0-11-4.9-11-11v0c0-6.1,4.9-11,11-11
				h53.1c6.1,0,11-4.9,11-11V36.5C207.9,30.4,212.8,25.5,218.9,25.5L218.9,25.5z"/>
		</g>
	</g>
	<g>
		<path class="st0" d="M37.3,230.8V223H19.4v-6.3l14.9-23.5h11V216h4.8v7h-4.8v7.8H37.3z M37.3,200.3L27.2,216h10.1V200.3z"/>
		<path class="st0" d="M55.3,230.8v-37.5h8v30.5h15.9v7H55.3z"/>
		<path class="st0" d="M99.1,230.8v-37.5h26.5v7h-18.6v7.9h18.2v7h-18.2v15.5H99.1z"/>
		<path class="st0" d="M129.4,212c0-11.3,8.3-19.4,19.6-19.4c11.4,0,19.6,8.1,19.6,19.4c0,11.3-8.3,19.4-19.6,19.4
			C137.6,231.4,129.4,223.3,129.4,212z M160.4,212c0-7-4.5-12.3-11.4-12.3s-11.4,5.3-11.4,12.3c0,7,4.4,12.3,11.4,12.3
			S160.4,219,160.4,212z"/>
		<path class="st0" d="M174.2,215.8v-22.6h8.1v22.3c0,5.2,3,8.8,8.8,8.8c5.8,0,8.8-3.6,8.8-8.8v-22.3h8.2v22.5
			c0,9.3-5.5,15.7-16.9,15.7C179.7,231.4,174.2,225,174.2,215.8z"/>
		<path class="st0" d="M241.3,230.8l-17.9-24.5v24.5h-8v-37.5h8.2l17.4,23.6v-23.6h8v37.5H241.3z"/>
		<path class="st0" d="M256.4,230.8v-37.5h14.8c11.8,0,19.9,7.5,19.9,18.8c0,11.3-8.2,18.7-19.9,18.7H256.4z M283,212
			c0-6.6-4-11.8-11.8-11.8h-6.8v23.5h6.8C278.6,223.7,283,218.4,283,212z"/>
		<path class="st0" d="M320.8,230.8l-2.3-6.4h-16.1l-2.4,6.4h-9.1l14.5-37.5h10l14.5,37.5H320.8z M310.4,201.2l-5.9,16.1h11.7
			L310.4,201.2z"/>
		<path class="st0" d="M338.4,230.8v-30.5h-11v-7h29.9v7h-10.9v30.5H338.4z"/>
		<path class="st0" d="M362.5,230.8v-37.5h8v37.5H362.5z"/>
		<path class="st0" d="M376.1,212c0-11.3,8.3-19.4,19.6-19.4c11.4,0,19.6,8.1,19.6,19.4c0,11.3-8.3,19.4-19.6,19.4
			C384.4,231.4,376.1,223.3,376.1,212z M407.1,212c0-7-4.5-12.3-11.4-12.3c-6.9,0-11.4,5.3-11.4,12.3c0,7,4.4,12.3,11.4,12.3
			C402.6,224.4,407.1,219,407.1,212z"/>
		<path class="st0" d="M446.8,230.8l-17.9-24.5v24.5h-8v-37.5h8.2l17.4,23.6v-23.6h8v37.5H446.8z"/>
	</g>
</g>
</svg>
