<?xml version="1.0" encoding="utf-8"?>
<!-- Generator: Adobe Illustrator 26.0.1, SVG Export Plug-In . SVG Version: 6.00 Build 0)  -->
<svg version="1.1" id="Layer_1" xmlns="http://www.w3.org/2000/svg" xmlns:xlink="http://www.w3.org/1999/xlink" x="0px" y="0px"
	 viewBox="0 0 30 30" style="enable-background:new 0 0 30 30;" xml:space="preserve">
<style type="text/css">
	.st0{fill:#FFFFFF;}
</style>
<g id="Capa_1">
</g>
<path class="st0" d="M24.6,11c-0.1-1-0.2-1.7-0.4-2.3C23.9,8.1,23.6,7.5,23,7c-0.5-0.5-1.1-0.9-1.7-1.1C20.7,5.6,20,5.4,19,5.4
	c-1-0.1-1.4-0.1-4-0.1s-3,0-4,0.1S9.3,5.6,8.7,5.8C8.1,6.1,7.5,6.4,7,7C6.4,7.5,6.1,8.1,5.8,8.7C5.6,9.3,5.4,10,5.4,11
	c-0.1,1-0.1,1.4-0.1,4s0,3,0.1,4s0.2,1.7,0.4,2.3C6.1,21.9,6.4,22.5,7,23c0.5,0.5,1.1,0.9,1.7,1.1c0.6,0.2,1.3,0.4,2.3,0.4
	c1,0.1,1.4,0.1,4,0.1s3,0,4-0.1s1.7-0.2,2.3-0.4c0.6-0.2,1.2-0.6,1.7-1.1s0.9-1.1,1.1-1.7s0.4-1.3,0.4-2.3c0.1-1,0.1-1.4,0.1-4
	C24.7,12.4,24.7,12,24.6,11z M22.9,18.9c0,0.9-0.2,1.5-0.3,1.8c-0.2,0.4-0.4,0.8-0.7,1.1c-0.3,0.3-0.7,0.6-1.1,0.7
	c-0.3,0.1-0.8,0.3-1.8,0.3s-1.3,0.1-3.9,0.1s-2.9,0-3.9-0.1c-0.9,0-1.5-0.2-1.8-0.3c-0.4-0.2-0.8-0.4-1.1-0.7
	c-0.3-0.3-0.6-0.7-0.7-1.1c-0.1-0.3-0.3-0.8-0.3-1.8s0-1.3,0-3.9s0-2.9,0.1-3.9c0-0.9,0.2-1.5,0.3-1.8c0.2-0.4,0.4-0.8,0.7-1.1
	s0.7-0.6,1.1-0.7c0.3-0.1,0.8-0.3,1.8-0.3s1.3,0,3.9,0s2.9,0,3.9,0.1c0.9,0,1.5,0.2,1.8,0.3C21.3,7.8,21.7,8,22,8.3
	c0.3,0.3,0.6,0.7,0.7,1.1c0.1,0.3,0.3,0.8,0.3,1.8s0.1,1.3,0.1,3.9C22.9,17.6,22.9,17.9,22.9,18.9z M15,10.1c-2.7,0-5,2.2-5,5
	c0,2.7,2.2,5,5,5s5-2.2,5-5S17.7,10.1,15,10.1z M15,18.2c-1.8,0-3.2-1.4-3.2-3.2s1.4-3.2,3.2-3.2s3.2,1.4,3.2,3.2
	C18.2,16.8,16.8,18.2,15,18.2z M21.3,9.9c0,0.6-0.5,1.2-1.2,1.2c-0.6,0-1.2-0.5-1.2-1.2c0-0.6,0.5-1.2,1.2-1.2S21.3,9.2,21.3,9.9z"
	/>
<g id="Capa_1_1_">
</g>
</svg>
