<?xml version="1.0" encoding="utf-8"?>
<!-- Generator: Adobe Illustrator 26.0.1, SVG Export Plug-In . SVG Version: 6.00 Build 0)  -->
<svg version="1.1" id="Layer_1" xmlns="http://www.w3.org/2000/svg" xmlns:xlink="http://www.w3.org/1999/xlink" x="0px" y="0px"
	 viewBox="0 0 30 30" style="enable-background:new 0 0 30 30;" xml:space="preserve">
<style type="text/css">
	.st0{fill:#FFFFFF;}
</style>
<g id="Layer_1_00000127753434827715048570000006004673697126956435_">
	<g>
		<g>
			<path class="st0" d="M5.3,21.2c2.2,0.2,4.1-0.4,5.8-1.7c-1.1-0.1-2-0.5-2.8-1.3c-0.4-0.4-0.7-0.9-0.9-1.5
				c0.6,0.1,1.2,0.1,1.7-0.1c-2-0.6-3-1.9-3.1-4c0.6,0.2,1.1,0.4,1.8,0.4c-0.9-0.6-1.4-1.4-1.7-2.4c-0.2-1-0.1-2,0.4-2.9
				c2.2,2.5,4.9,3.9,8.2,4.2c0-0.2-0.1-0.4-0.1-0.7C14.7,10,15.1,8.9,16.2,8c0.9-0.8,2-1.1,3.2-0.9c0.8,0.1,1.6,0.5,2.2,1.1
				c0.1,0.1,0.1,0.1,0.2,0.1c0.8-0.2,1.6-0.5,2.3-0.9c0,0,0.1,0,0.1-0.1c-0.1,0.5-0.4,0.9-0.6,1.2c-0.3,0.4-0.6,0.7-1,0.9
				C23.3,9.5,24,9.3,24.7,9c-0.3,0.5-0.7,0.9-1.1,1.3c-0.3,0.2-0.5,0.5-0.8,0.7c-0.1,0.1-0.1,0.1-0.1,0.2c0,1.2-0.1,2.3-0.4,3.4
				c-0.3,0.9-0.6,1.8-1.1,2.7c-0.3,0.6-0.7,1.1-1.1,1.7c-0.5,0.6-1,1.1-1.6,1.6c-0.7,0.6-1.5,1-2.3,1.4c-1,0.4-2,0.7-3,0.9
				c-0.9,0.1-1.8,0.2-2.7,0.1c-0.9-0.1-1.9-0.2-2.8-0.6c-0.6-0.2-1.2-0.5-1.8-0.8C5.7,21.4,5.5,21.3,5.3,21.2z"/>
		</g>
	</g>
</g>
<g id="Capa_1">
</g>
</svg>
